<?xml version="1.0" standalone="no"?>
<!DOCTYPE svg PUBLIC "-//W3C//DTD SVG 20010904//EN"
 "http://www.w3.org/TR/2001/REC-SVG-20010904/DTD/svg10.dtd">
<svg version="1.0" xmlns="http://www.w3.org/2000/svg"
 width="512.000000pt" height="512.000000pt" viewBox="0 0 512.000000 512.000000"
 preserveAspectRatio="xMidYMid meet">
<metadata>
Created by potrace 1.15, written by Peter Selinger 2001-2017
</metadata>
<g transform="translate(0.000000,512.000000) scale(0.100000,-0.100000)"
fill="#000000" stroke="none">
<path d="M2350 4785 c-290 -50 -537 -179 -732 -383 -428 -448 -489 -1119 -148
-1635 70 -106 187 -234 278 -305 l53 -42 -43 -17 c-24 -9 -88 -40 -143 -68
-395 -203 -734 -556 -920 -959 -116 -251 -182 -532 -188 -806 -2 -131 7 -158
76 -214 l39 -31 990 -3 c958 -2 991 -2 1033 17 67 29 100 87 100 171 0 83 -31
137 -97 169 -44 21 -51 21 -804 21 -715 0 -761 2 -799 19 -51 23 -91 70 -105
122 -9 33 -7 53 10 117 147 537 573 977 1108 1146 184 58 270 70 502 70 240 0
321 -12 531 -80 120 -38 166 -42 224 -15 48 22 69 44 90 94 32 77 6 183 -56
227 l-29 21 88 73 c305 254 478 654 459 1056 -31 628 -482 1134 -1102 1235
-108 18 -311 18 -415 0z m419 -390 c455 -111 764 -546 711 -1002 -24 -212
-114 -396 -265 -549 -137 -137 -289 -221 -468 -258 -98 -21 -276 -20 -375 0
-351 72 -630 348 -719 712 -24 102 -22 294 5 406 89 362 375 631 746 702 87
17 275 11 365 -11z"/>
<path d="M3595 2174 c-45 -25 -65 -45 -86 -86 -17 -34 -19 -63 -19 -337 l0
-300 -307 -3 c-264 -3 -312 -5 -338 -20 -156 -85 -131 -310 40 -357 25 -7 149
-11 323 -11 l282 0 0 -300 c0 -317 2 -330 49 -384 81 -92 255 -66 310 46 20
42 21 59 21 341 l0 296 303 3 302 3 45 27 c87 51 119 163 72 255 -48 94 -87
103 -439 103 l-283 0 0 297 c0 282 -1 299 -21 341 -30 62 -85 95 -163 99 -42
2 -70 -2 -91 -13z"/>
</g>
</svg>
