<?xml version="1.0" standalone="no"?>
<!DOCTYPE svg PUBLIC "-//W3C//DTD SVG 20010904//EN"
 "http://www.w3.org/TR/2001/REC-SVG-20010904/DTD/svg10.dtd">
<svg version="1.0" xmlns="http://www.w3.org/2000/svg"
 width="512.000000pt" height="512.000000pt" viewBox="0 0 512.000000 512.000000"
 preserveAspectRatio="xMidYMid meet">

<g transform="translate(0.000000,512.000000) scale(0.100000,-0.100000)"
fill="#000000" stroke="none">
<path d="M0 2560 l0 -2560 2560 0 2560 0 0 2560 0 2560 -2560 0 -2560 0 0
-2560z m4237 2385 c68 -20 128 -80 148 -148 13 -44 15 -228 15 -1404 0 -744
-2 -1353 -5 -1353 -3 0 -32 11 -65 25 -251 106 -552 104 -813 -5 -175 -72
-361 -228 -470 -391 -104 -157 -157 -305 -178 -499 -20 -182 12 -368 91 -537
l39 -83 -1278 0 -1277 0 -55 28 c-43 21 -61 39 -87 82 l-32 54 0 2033 c0 1816
2 2038 16 2071 26 62 82 111 154 133 14 4 862 8 1886 8 1629 1 1867 -1 1911
-14z m-63 -2995 c310 -83 547 -314 643 -627 24 -80 27 -103 27 -248 1 -187
-10 -234 -84 -390 -123 -255 -326 -421 -609 -497 -110 -29 -294 -29 -415 0
-311 77 -557 305 -658 612 -27 83 -31 113 -36 236 -5 166 9 250 66 384 42 101
68 144 137 230 127 159 350 288 553 320 92 14 286 4 376 -20z"/>
<path d="M1005 4546 c-131 -32 -269 -130 -341 -243 -112 -174 -115 -417 -9
-593 46 -75 147 -171 223 -209 311 -157 692 3 794 332 28 92 30 234 4 322 -56
191 -217 345 -407 390 -76 18 -194 18 -264 1z m201 -157 c126 -23 237 -109
292 -226 24 -52 27 -70 27 -163 0 -93 -3 -112 -27 -162 -54 -116 -169 -205
-295 -227 -176 -32 -369 73 -434 237 -33 80 -32 222 0 304 43 111 160 208 281
234 71 16 85 16 156 3z"/>
<path d="M1176 4101 l-121 -120 -48 46 c-43 40 -52 44 -80 39 -41 -8 -65 -33
-73 -74 -6 -31 -2 -38 83 -123 71 -71 95 -89 118 -89 25 0 57 28 197 168 181
181 188 193 147 246 -16 20 -29 26 -61 26 -39 0 -47 -6 -162 -119z"/>
<path d="M2286 4068 c-36 -33 -39 -85 -6 -118 20 -20 33 -20 798 -20 622 1
780 3 794 14 26 19 39 62 28 90 -22 59 16 56 -822 56 l-767 0 -25 -22z"/>
<path d="M1013 3235 c-199 -43 -359 -197 -419 -401 -20 -70 -22 -197 -4 -274
43 -181 173 -330 346 -396 101 -39 254 -45 356 -14 205 62 350 219 394 430 28
134 -2 294 -76 410 -41 63 -142 157 -207 193 -112 60 -261 80 -390 52z m186
-155 c128 -21 243 -108 298 -225 25 -54 28 -70 28 -170 0 -101 -2 -115 -29
-170 -101 -204 -347 -282 -557 -175 -60 31 -128 105 -162 178 -30 62 -32 75
-32 172 0 93 3 112 27 162 62 134 189 219 353 237 6 0 39 -4 74 -9z"/>
<path d="M1177 2791 l-122 -120 -42 40 c-52 48 -97 53 -133 14 -44 -47 -34
-77 62 -171 66 -65 92 -84 113 -84 23 0 58 30 192 163 90 89 166 172 169 183
7 26 -19 79 -41 88 -54 20 -74 9 -198 -113z"/>
<path d="M2286 2748 c-36 -33 -39 -85 -6 -118 20 -20 33 -20 798 -20 769 0
778 0 800 20 35 33 33 84 -4 118 l-25 22 -769 0 -769 0 -25 -22z"/>
<path d="M1020 1924 c-198 -42 -360 -191 -421 -384 -25 -81 -27 -228 -4 -314
49 -184 206 -341 391 -391 76 -21 221 -21 298 0 199 53 357 223 401 430 19 90
19 128 -1 222 -24 119 -66 196 -154 283 -87 88 -166 130 -282 154 -92 19 -141
19 -228 0z m231 -170 c108 -32 194 -106 247 -214 24 -49 26 -67 27 -160 0
-103 -1 -108 -38 -182 -44 -89 -92 -136 -187 -182 -59 -28 -73 -31 -165 -31
-94 0 -105 2 -169 34 -38 19 -89 53 -112 77 -169 169 -143 471 54 606 93 64
231 85 343 52z"/>
<path d="M1176 1481 l-121 -120 -42 40 c-49 45 -99 53 -133 19 -50 -50 -34
-95 69 -193 62 -58 76 -67 108 -67 35 0 48 11 200 163 144 144 163 166 163
195 0 46 -38 82 -86 82 -34 0 -47 -10 -158 -119z"/>
<path d="M2303 1450 c-12 -5 -29 -23 -38 -39 -14 -27 -14 -35 -1 -65 21 -51
59 -59 255 -54 l163 3 24 28 c32 38 31 72 -5 108 l-29 29 -174 -1 c-95 0 -183
-4 -195 -9z"/>
<path d="M3885 1625 l-25 -24 0 -221 0 -220 -205 0 c-233 0 -265 -7 -283 -59
-13 -38 -3 -72 30 -95 19 -13 57 -16 240 -16 l218 0 0 -219 c0 -214 1 -221 23
-245 12 -15 36 -29 54 -32 27 -5 37 -1 63 24 l30 30 0 221 0 221 220 0 221 0
24 25 c34 33 34 83 -1 116 -25 24 -28 24 -245 27 l-219 3 0 215 0 216 -29 29
c-38 37 -82 39 -116 4z"/>
</g>
</svg>
