<?xml version="1.0" standalone="no"?>
<!DOCTYPE svg PUBLIC "-//W3C//DTD SVG 20010904//EN"
 "http://www.w3.org/TR/2001/REC-SVG-20010904/DTD/svg10.dtd">
<svg version="1.0" xmlns="http://www.w3.org/2000/svg"
 width="225.000000pt" height="225.000000pt" viewBox="0 0 225.000000 225.000000"
 preserveAspectRatio="xMidYMid meet">
<metadata>
Created by potrace 1.15, written by Peter Selinger 2001-2017
</metadata>
<g transform="translate(0.000000,225.000000) scale(0.100000,-0.100000)"
fill="#000000" stroke="none">
<path d="M1830 2110 l0 -140 -140 0 -140 0 0 -70 0 -70 140 0 140 0 0 -140 0
-140 70 0 70 0 0 140 0 140 140 0 140 0 0 70 0 70 -140 0 -140 0 0 140 0 140
-70 0 -70 0 0 -140z"/>
<path d="M994 1740 c-155 -40 -259 -121 -305 -236 -21 -53 -24 -75 -24 -206 0
-140 -1 -148 -22 -163 -45 -31 -35 -145 19 -218 13 -18 49 -77 79 -131 36 -66
77 -123 122 -169 37 -39 67 -73 67 -76 0 -14 -45 -89 -77 -129 -44 -54 -87
-75 -193 -97 -196 -39 -379 -115 -421 -175 -10 -14 -21 -51 -25 -83 l-6 -57
916 0 916 0 0 39 c0 77 -33 127 -110 166 -73 37 -210 82 -321 106 -57 12 -121
30 -141 40 -43 22 -104 94 -132 157 l-19 42 79 83 c55 57 93 109 123 167 25
47 57 102 72 123 32 44 55 132 45 172 -4 14 -19 33 -34 42 l-27 16 9 106 c22
272 -77 417 -332 482 -93 24 -166 23 -258 -1z"/>
<path d="M417 1316 c-54 -20 -104 -61 -130 -109 -18 -35 -22 -58 -22 -137 0
-79 -3 -98 -18 -113 -23 -23 -16 -75 16 -127 12 -19 33 -57 47 -84 14 -27 44
-70 67 -94 l43 -45 -25 -43 c-36 -61 -65 -80 -153 -99 -159 -35 -242 -89 -242
-160 l0 -25 138 0 c148 0 163 3 296 50 48 18 138 42 199 55 93 20 115 28 141
54 27 27 28 31 11 31 -44 0 -112 57 -136 114 -12 27 -10 30 26 60 l37 32 -42
84 c-23 46 -55 100 -71 119 -39 49 -59 112 -59 186 0 50 5 69 25 99 25 37 32
93 19 144 -6 20 -12 22 -68 22 -33 -1 -78 -7 -99 -14z"/>
<path d="M1667 1315 c-16 -39 -7 -116 16 -146 19 -26 22 -43 22 -118 0 -85 -1
-89 -41 -151 -23 -36 -60 -101 -84 -145 l-43 -79 39 -34 38 -33 -23 -45 c-25
-46 -89 -94 -127 -94 -31 -1 38 -57 83 -68 21 -5 81 -20 133 -32 52 -12 135
-37 184 -56 86 -33 92 -34 237 -34 l149 0 0 25 c0 70 -32 93 -211 149 -127 39
-160 59 -188 114 l-19 37 42 46 c49 54 132 203 141 252 5 27 3 39 -12 54 -16
16 -18 30 -15 86 11 176 -72 275 -238 285 -66 4 -78 2 -83 -13z"/>
</g>
</svg>
