<?xml version="1.0" standalone="no"?>
<!DOCTYPE svg PUBLIC "-//W3C//DTD SVG 20010904//EN"
 "http://www.w3.org/TR/2001/REC-SVG-20010904/DTD/svg10.dtd">
<svg version="1.0" xmlns="http://www.w3.org/2000/svg"
 width="512.000000pt" height="512.000000pt" viewBox="0 0 512.000000 512.000000"
 preserveAspectRatio="xMidYMid meet">
<metadata>
Created by potrace 1.15, written by Peter Selinger 2001-2017
</metadata>
<g transform="translate(0.000000,512.000000) scale(0.100000,-0.100000)"
fill="#000000" stroke="none">
<path d="M1903 5100 c-666 -101 -1245 -493 -1594 -1078 -369 -620 -411 -1410
-111 -2079 287 -640 873 -1114 1567 -1267 131 -29 306 -46 463 -46 138 0 329
15 341 26 2 2 -3 38 -12 79 -9 41 -20 106 -23 144 -4 38 -10 75 -14 81 -6 9
-36 9 -136 0 -204 -19 -417 1 -642 60 -693 184 -1234 762 -1381 1475 -172 834
242 1700 999 2089 309 159 595 224 935 213 393 -13 731 -127 1058 -357 120
-84 353 -317 437 -437 186 -265 299 -548 346 -864 13 -89 15 -157 11 -309 -3
-107 -8 -205 -12 -216 -6 -20 -2 -22 62 -29 37 -3 108 -15 157 -26 68 -14 92
-16 97 -7 28 45 31 474 5 648 -152 1013 -946 1787 -1956 1910 -137 16 -457 11
-597 -10z"/>
<path d="M2075 4315 c-175 -38 -316 -148 -394 -306 -68 -138 -83 -214 -88
-441 l-5 -196 -36 -7 c-92 -17 -188 -95 -239 -195 l-28 -55 0 -545 0 -545 26
-55 c48 -102 118 -164 219 -194 46 -14 131 -16 607 -16 l553 0 21 43 c75 148
279 383 418 482 l71 50 -3 385 -2 385 -26 56 c-50 106 -134 177 -237 200 l-52
12 0 173 c0 193 -13 280 -57 396 -72 185 -201 307 -383 363 -79 24 -275 29
-365 10z m307 -343 c57 -25 108 -76 138 -138 23 -46 25 -62 28 -256 l4 -208
-316 0 -316 0 0 158 c0 87 5 185 11 217 24 132 97 215 216 245 58 14 184 5
235 -18z m-18 -961 c129 -57 210 -206 177 -328 -14 -53 -76 -131 -129 -163
l-41 -25 -1 -202 0 -203 -135 0 -135 0 0 203 -1 202 -50 34 c-87 59 -137 154
-125 238 17 124 105 226 226 260 58 17 158 9 214 -16z"/>
<path d="M3868 2113 c-8 -10 -26 -78 -38 -150 -13 -73 -29 -133 -34 -133 -6 0
-38 -13 -71 -28 l-59 -28 -117 79 c-91 62 -122 78 -141 74 -35 -9 -228 -209
-228 -237 0 -12 34 -73 76 -135 l76 -112 -28 -72 c-20 -51 -34 -73 -48 -76
-28 -6 -236 -45 -241 -45 -2 0 -11 -7 -19 -16 -13 -13 -16 -43 -16 -168 0
-106 4 -157 13 -168 7 -10 47 -23 97 -33 210 -40 187 -31 205 -83 9 -26 22
-58 29 -71 12 -21 8 -31 -56 -125 -86 -125 -92 -139 -74 -174 25 -48 201 -212
227 -212 13 0 72 34 132 75 l109 75 72 -27 73 -28 23 -130 c13 -71 30 -138 38
-147 13 -16 35 -18 173 -18 190 0 177 -11 209 168 17 92 27 125 39 129 9 3 42
17 73 30 l57 25 110 -76 c72 -49 120 -76 138 -76 21 0 49 22 130 103 85 85
103 108 103 133 0 21 -22 62 -74 138 l-74 107 30 72 c17 40 32 73 33 75 1 1
60 14 130 27 75 15 136 32 147 41 16 15 18 34 18 169 0 132 -2 154 -17 168
-10 8 -70 25 -133 37 -63 11 -123 24 -133 28 -11 5 -30 37 -46 77 l-27 70 75
109 c52 76 74 118 74 139 0 24 -18 47 -105 133 -74 74 -112 104 -129 104 -13
0 -73 -33 -135 -76 l-112 -76 -65 26 c-36 14 -70 26 -75 26 -5 0 -19 57 -32
128 -33 184 -18 172 -209 172 -138 0 -160 -2 -173 -17z m337 -702 c164 -81
253 -264 211 -431 -32 -123 -103 -211 -213 -263 -320 -149 -655 186 -505 507
69 147 206 230 366 222 62 -3 91 -11 141 -35z"/>
</g>
</svg>
