<?xml version="1.0" standalone="no"?>
<!DOCTYPE svg PUBLIC "-//W3C//DTD SVG 20010904//EN"
 "http://www.w3.org/TR/2001/REC-SVG-20010904/DTD/svg10.dtd">
<svg version="1.0" xmlns="http://www.w3.org/2000/svg"
 width="200.000000pt" height="200.000000pt" viewBox="0 0 200.000000 200.000000"
 preserveAspectRatio="xMidYMid meet">

<g transform="translate(0.000000,200.000000) scale(0.100000,-0.100000)"
fill="#000000" stroke="none">
<path d="M305 1535 c-44 -43 -34 -55 45 -55 67 0 70 -1 60 -19 -18 -35 -12
-105 13 -142 71 -106 203 -106 274 0 25 37 31 107 13 142 -10 18 -7 19 60 19
79 0 89 12 45 55 -32 33 -78 33 -111 0 l-24 -24 -36 24 c-26 18 -50 25 -84 25
-34 0 -58 -7 -84 -25 l-36 -24 -24 24 c-33 33 -79 33 -111 0z"/>
<path d="M1359 1537 c-52 -35 -79 -82 -79 -137 0 -122 143 -203 241 -137 106
71 106 203 0 274 -23 16 -49 23 -81 23 -32 0 -58 -7 -81 -23z"/>
<path d="M224 1336 c-33 -15 -58 -63 -47 -94 3 -9 42 -54 86 -99 l80 -82 -27
-193 c-15 -106 -30 -210 -33 -231 l-6 -37 42 0 41 0 0 -95 c0 -88 2 -98 25
-120 32 -33 78 -33 110 0 23 22 25 32 25 120 l0 95 40 0 40 0 0 -95 c0 -88 2
-98 25 -120 32 -33 78 -33 110 0 23 22 25 32 25 120 l0 95 40 0 c22 0 40 3 40
8 0 4 -14 105 -31 226 l-32 218 76 77 c87 88 101 111 92 152 -8 36 -39 59 -80
59 -25 0 -46 -16 -120 -90 l-90 -90 -90 0 -90 0 -90 89 c-49 49 -99 91 -110
95 -11 3 -34 -1 -51 -8z"/>
<path d="M1104 1336 c-36 -16 -58 -64 -44 -99 4 -12 47 -60 94 -107 l86 -85 0
-318 0 -318 25 -24 c32 -33 78 -33 110 0 24 23 25 29 25 160 l0 135 40 0 40 0
0 -135 c0 -131 1 -137 25 -160 32 -33 78 -33 110 0 l25 24 0 313 0 313 92 92
c87 87 93 96 93 134 0 49 -30 79 -79 79 -26 0 -46 -15 -121 -90 l-90 -90 -90
0 -90 0 -90 89 c-49 49 -99 91 -110 95 -11 3 -34 -1 -51 -8z"/>
</g>
</svg>
