<?xml version="1.0" standalone="no"?>
<!DOCTYPE svg PUBLIC "-//W3C//DTD SVG 20010904//EN"
 "http://www.w3.org/TR/2001/REC-SVG-20010904/DTD/svg10.dtd">
<svg version="1.0" xmlns="http://www.w3.org/2000/svg"
 width="256.000000pt" height="256.000000pt" viewBox="0 0 256.000000 256.000000"
 preserveAspectRatio="xMidYMid meet">
<metadata>
Created by potrace 1.15, written by Peter Selinger 2001-2017
</metadata>
<g transform="translate(0.000000,256.000000) scale(0.100000,-0.100000)"
fill="#000000" stroke="none">
<path d="M63 2540 c-67 -40 -63 24 -63 -1068 0 -755 3 -991 12 -1000 17 -17
1239 -17 1256 0 17 17 15 64 -4 82 -14 14 -81 16 -585 16 l-569 0 0 760 0 760
1020 0 1020 0 0 -343 c0 -253 3 -346 12 -355 20 -20 65 -14 82 10 14 20 16 87
16 531 0 556 1 549 -59 600 l-33 27 -1036 0 c-1011 0 -1038 -1 -1069 -20z
m2077 -116 c6 -14 10 -68 10 -120 l0 -94 -1020 0 -1020 0 0 113 c0 63 3 117 7
120 3 4 458 7 1010 7 l1003 0 10 -26z"/>
<path d="M350 1740 l0 -60 110 0 110 0 0 60 0 60 -110 0 -110 0 0 -60z"/>
<path d="M710 1740 l0 -60 595 0 595 0 0 60 0 60 -595 0 -595 0 0 -60z"/>
<path d="M350 1485 l0 -55 110 0 110 0 0 55 0 55 -110 0 -110 0 0 -55z"/>
<path d="M710 1485 l0 -55 595 0 595 0 0 55 0 55 -595 0 -595 0 0 -55z"/>
<path d="M2254 1263 c-33 -19 -193 -173 -471 -453 l-422 -425 -47 -167 c-70
-244 -67 -247 187 -179 80 21 154 43 165 49 10 6 211 203 445 439 467 469 455
453 447 568 -5 81 -39 134 -111 170 -69 34 -130 33 -193 -2z m61 -234 l70 -71
-390 -384 -390 -384 -70 70 -70 70 385 385 c212 212 387 385 390 385 3 0 37
-32 75 -71z"/>
<path d="M350 1225 l0 -55 110 0 110 0 0 55 0 55 -110 0 -110 0 0 -55z"/>
<path d="M710 1225 l0 -55 595 0 595 0 0 55 0 55 -595 0 -595 0 0 -55z"/>
<path d="M350 975 l0 -55 110 0 110 0 0 55 0 55 -110 0 -110 0 0 -55z"/>
<path d="M710 975 l0 -55 490 0 490 0 0 55 0 55 -490 0 -490 0 0 -55z"/>
</g>
</svg>
