<?xml version="1.0" standalone="no"?>
<!DOCTYPE svg PUBLIC "-//W3C//DTD SVG 20010904//EN"
 "http://www.w3.org/TR/2001/REC-SVG-20010904/DTD/svg10.dtd">
<svg version="1.0" xmlns="http://www.w3.org/2000/svg"
 width="225.000000pt" height="225.000000pt" viewBox="0 0 225.000000 225.000000"
 preserveAspectRatio="xMidYMid meet">

<g transform="translate(0.000000,225.000000) scale(0.100000,-0.100000)"
fill="#000000" stroke="none">
<path d="M825 2129 c-421 -61 -735 -437 -712 -854 12 -220 99 -409 259 -561
78 -75 148 -120 252 -163 107 -44 192 -61 316 -61 173 0 320 46 461 143 l67
45 50 -51 c33 -35 52 -63 56 -87 6 -36 69 -103 322 -343 77 -73 84 -77 127
-77 82 0 138 76 108 149 -7 15 -63 77 -124 138 -216 211 -275 263 -299 263
-14 0 -44 21 -80 57 l-57 57 33 45 c88 120 144 277 153 433 23 375 -203 710
-559 829 -133 45 -246 56 -373 38z m311 -173 c135 -43 254 -126 331 -230 162
-220 188 -475 72 -714 -34 -70 -58 -102 -128 -172 -136 -135 -254 -188 -437
-197 -139 -7 -233 12 -346 70 -264 135 -412 439 -354 727 80 395 482 636 862
516z"/>
<path d="M835 1856 c-55 -25 -109 -80 -133 -135 -24 -55 -21 -166 6 -218 37
-70 79 -110 140 -133 168 -64 342 64 342 251 0 58 -35 140 -77 181 -80 78
-184 98 -278 54z"/>
<path d="M714 1311 c-154 -60 -249 -154 -275 -270 -13 -56 3 -78 83 -116 40
-19 100 -41 133 -50 249 -64 600 -29 744 75 36 26 41 35 41 68 0 119 -157 267
-331 313 l-45 12 -60 -46 c-32 -26 -63 -47 -67 -47 -5 0 -34 20 -66 45 -31 25
-64 45 -72 45 -8 -1 -46 -13 -85 -29z m255 -190 l28 -101 -29 -47 -30 -47 -28
46 -28 45 26 106 c14 58 28 105 30 103 1 -2 16 -49 31 -105z m271 -46 c0 -12
-15 -15 -73 -15 -59 0 -74 3 -74 15 0 12 15 15 74 15 58 0 73 -3 73 -15z"/>
</g>
</svg>
